<?xml version="1.0" standalone="no"?>
<!DOCTYPE svg PUBLIC "-//W3C//DTD SVG 20010904//EN"
 "http://www.w3.org/TR/2001/REC-SVG-20010904/DTD/svg10.dtd">
<svg version="1.0" xmlns="http://www.w3.org/2000/svg"
 width="700.000000pt" height="700.000000pt" viewBox="0 0 700.000000 700.000000"
 preserveAspectRatio="xMidYMid meet">
<metadata>
Created by potrace 1.14, written by Peter Selinger 2001-2017
</metadata>
<g transform="translate(0.000000,700.000000) scale(0.100000,-0.100000)"
fill="#000000" stroke="none">
<path d="M3306 6703 c0 -246 3 -297 14 -295 28 7 237 8 303 2 37 -3 68 -3 68
0 4 15 4 567 1 578 -3 9 -51 12 -196 12 l-191 0 1 -297z"/>
<path d="M2515 6759 c-88 -44 -161 -84 -163 -88 -2 -5 54 -123 124 -263 l127
-255 101 59 c55 32 104 58 109 58 4 0 27 8 50 18 23 10 52 23 65 28 22 9 19
14 -105 267 -70 141 -132 257 -138 256 -5 0 -82 -36 -170 -80z"/>
<path d="M4180 6588 c-69 -138 -126 -254 -128 -258 -1 -4 19 -15 45 -25 75
-28 172 -76 239 -116 l61 -37 127 254 c69 140 126 259 126 263 0 8 -322 171
-338 171 -4 0 -64 -113 -132 -252z"/>
<path d="M1738 6112 c-57 -81 -108 -152 -111 -159 -7 -12 28 -39 312 -240 91
-64 166 -112 168 -106 8 23 118 191 152 231 71 86 85 64 -131 218 -106 75
-214 152 -239 171 l-46 33 -105 -148z"/>
<path d="M5125 6236 c-16 -13 -123 -89 -237 -170 -115 -81 -208 -151 -208
-156 0 -4 3 -10 8 -12 24 -11 189 -245 204 -290 4 -10 470 311 483 332 4 6
-191 291 -213 312 -4 3 -20 -4 -37 -16z"/>
<path d="M3289 6009 c-436 -74 -769 -347 -898 -734 -16 -49 -32 -107 -35 -127
-38 -247 -23 -441 48 -638 41 -113 130 -290 224 -444 23 -37 42 -69 42 -71 0
-1 22 -40 48 -86 164 -287 229 -497 241 -786 1 -10 116 -13 541 -13 507 0 540
1 541 18 12 312 94 545 336 952 121 204 210 387 239 490 52 183 62 383 29 560
-2 14 -7 40 -10 59 -9 45 -58 177 -89 239 -76 149 -209 296 -361 398 -245 164
-591 235 -896 183z"/>
<path d="M1362 5055 l1 -195 291 0 291 1 2 96 c2 90 18 237 29 276 5 16 -14
17 -305 17 l-310 0 1 -195z"/>
<path d="M5026 5213 c4 -21 8 -47 10 -58 10 -51 16 -120 18 -201 l2 -89 292
-2 292 -3 0 195 0 195 -310 0 -311 0 7 -37z"/>
<path d="M1858 4455 c-65 -30 -148 -68 -184 -85 -37 -17 -90 -40 -118 -52 -92
-39 -91 -24 -14 -198 38 -85 72 -162 77 -170 12 -21 38 -16 128 26 43 20 143
65 223 101 80 36 149 69 154 74 5 4 -5 37 -23 74 -18 37 -49 116 -68 176 -20
60 -41 109 -47 108 -6 0 -64 -25 -128 -54z"/>
<path d="M4994 4483 c-4 -16 -8 -30 -9 -33 -10 -41 -60 -168 -98 -248 -11 -25
-16 -47 -11 -51 5 -5 97 -48 204 -96 107 -48 216 -98 242 -110 l46 -22 28 61
c15 33 42 95 62 136 19 41 43 94 53 117 l18 43 -55 25 c-30 14 -56 25 -58 25
-2 0 -50 22 -107 49 -154 72 -288 131 -298 131 -5 0 -12 -12 -17 -27z"/>
<path d="M799 4072 c-94 -32 -158 -94 -195 -192 -16 -41 -18 -111 -19 -743 -1
-384 2 -728 7 -765 20 -160 71 -277 287 -656 72 -126 160 -290 197 -364 69
-140 174 -393 174 -418 0 -8 4 -22 10 -32 8 -15 46 -138 55 -181 2 -9 15 -68
28 -131 14 -63 28 -142 32 -175 4 -33 9 -71 11 -85 6 -38 17 -219 18 -277 l0
-53 728 0 728 0 10 23 c20 49 146 497 156 552 2 17 9 44 14 60 14 46 59 285
66 351 3 32 9 86 13 119 8 73 7 298 -3 375 -13 104 -57 245 -106 345 -59 121
-144 234 -282 377 -305 315 -593 601 -629 624 -139 87 -289 74 -399 -36 -84
-83 -108 -175 -74 -277 24 -71 81 -141 435 -534 155 -171 199 -231 199 -267 0
-40 -25 -86 -55 -102 -51 -27 -110 -9 -164 49 -13 14 -54 58 -90 97 -80 86
-195 213 -322 354 -52 58 -98 110 -104 116 -5 6 -35 39 -65 74 -30 34 -65 75
-78 89 -57 64 -151 189 -169 226 -45 90 -46 93 -48 669 l-2 551 -23 60 c-33
86 -108 157 -181 173 -86 18 -113 19 -160 4z"/>
<path d="M6076 4079 c-100 -15 -198 -107 -226 -212 -11 -41 -15 -163 -16 -587
-1 -461 -3 -543 -17 -590 -15 -52 -70 -147 -115 -201 -94 -112 -149 -176 -158
-184 -5 -5 -41 -46 -80 -90 -38 -44 -71 -82 -74 -85 -4 -3 -46 -50 -95 -105
-89 -100 -124 -138 -246 -269 -114 -122 -127 -134 -156 -149 -50 -25 -118 -1
-142 51 -18 38 -13 77 15 118 23 33 213 253 263 305 97 98 306 349 329 394 36
69 37 170 4 235 -69 132 -207 197 -348 165 -104 -24 -111 -29 -539 -466 -347
-354 -407 -424 -478 -565 -49 -96 -93 -229 -104 -314 -3 -19 -8 -61 -12 -93
-15 -110 -3 -366 25 -532 9 -55 43 -219 59 -290 9 -38 18 -77 20 -85 14 -68
128 -464 145 -507 l10 -23 728 0 727 0 1 48 c4 262 64 590 159 861 104 297
215 533 443 941 129 231 191 381 208 497 10 68 12 1429 2 1480 -30 169 -171
276 -332 252z"/>
<path d="M3023 2909 c-61 -23 -77 -110 -29 -158 l26 -26 472 -2 c397 -1 477 1
501 13 51 27 63 104 22 148 -13 14 -28 27 -32 27 -30 6 -946 3 -960 -2z"/>
<path d="M3076 2521 c25 -23 252 -169 274 -176 35 -12 248 -14 288 -3 28 8
253 149 287 179 5 6 -175 9 -425 9 -238 0 -429 -4 -424 -9z"/>
</g>
</svg>
